<?xml version="1.0" encoding="UTF-8" standalone="no"?><svg xmlns="http://www.w3.org/2000/svg" xmlns:xlink="http://www.w3.org/1999/xlink" clip-rule="evenodd" stroke-miterlimit="4.00" viewBox="0 0 1920 1080"><desc>SVG generated by Keynote</desc><defs></defs><g transform="matrix(1.00, 0.00, -0.00, -1.00, 0.0, 1080.0)"><path d="M 0.0 1080.0 L 1920.0 1080.0 L 1920.0 0.0 L 0.0 0.0 Z M 0.0 1080.0 " fill="#FEFFFF"></path><g><clipPath id="clip-90"><path d="M 112.0 944.0 L 1211.0 944.0 L 1211.0 136.0 L 112.0 136.0 Z M 112.2 944.2 "></path></clipPath><g clip-path="url(#clip-90)"><image xlink:href="../../7D0EDED0-566A-4AF4-B6C3-95726CFC12C8/assets/570E5040ACB3A3E1D953E3D37C2EFA91.png" width="1045.00" height="768.00" transform="matrix(1.05, 0.00, -0.00, -1.05, 112.0, 944.0)"></image></g></g><text xml:space="preserve" font-family="Helvetica-Light" font-size="92.0" fill="#000000" transform="matrix(1.00, 0.00, -0.00, -1.00, 1245.0, 872.0)">P</text><text xml:space="preserve" font-family="Helvetica-Light" font-size="92.0" fill="#000000" transform="matrix(1.00, 0.00, -0.00, -1.00, 1301.2, 872.0)">r</text><text xml:space="preserve" font-family="Helvetica-Light" font-size="92.0" fill="#000000" transform="matrix(1.00, 0.00, -0.00, -1.00, 1330.2, 872.0)">o</text><text xml:space="preserve" font-family="Helvetica-Light" font-size="92.0" fill="#000000" transform="matrix(1.00, 0.00, -0.00, -1.00, 1381.3, 872.0)">j</text><text xml:space="preserve" font-family="Helvetica-Light" font-size="92.0" fill="#000000" transform="matrix(1.00, 0.00, -0.00, -1.00, 1401.8, 872.0)">e</text><text xml:space="preserve" font-family="Helvetica-Light" font-size="92.0" fill="#000000" transform="matrix(1.00, 0.00, -0.00, -1.00, 1452.9, 872.0)">c</text><text xml:space="preserve" font-family="Helvetica-Light" font-size="92.0" fill="#000000" transform="matrix(1.00, 0.00, -0.00, -1.00, 1504.1, 872.0)">t</text><text xml:space="preserve" font-family="Helvetica-Light" font-size="92.0" fill="#000000" transform="matrix(1.00, 0.00, -0.00, -1.00, 1529.6, 872.0)">i</text><text xml:space="preserve" font-family="Helvetica-Light" font-size="92.0" fill="#000000" transform="matrix(1.00, 0.00, -0.00, -1.00, 1550.1, 872.0)">o</text><text xml:space="preserve" font-family="Helvetica-Light" font-size="92.0" fill="#000000" transform="matrix(1.00, 0.00, -0.00, -1.00, 1601.2, 872.0)">n</text><text xml:space="preserve" font-family="Helvetica-Light" font-size="92.0" fill="#000000" transform="matrix(1.00, 0.00, -0.00, -1.00, 1652.4, 872.0)"> </text><text xml:space="preserve" font-family="Helvetica-Light" font-size="92.0" fill="#000000" transform="matrix(1.00, 0.00, -0.00, -1.00, 1245.0, 762.0)">I</text><text xml:space="preserve" font-family="Helvetica-Light" font-size="92.0" fill="#000000" transform="matrix(1.00, 0.00, -0.00, -1.00, 1270.6, 762.0)">n</text><text xml:space="preserve" font-family="Helvetica-Light" font-size="92.0" fill="#000000" transform="matrix(1.00, 0.00, -0.00, -1.00, 1321.7, 762.0)">t</text><text xml:space="preserve" font-family="Helvetica-Light" font-size="92.0" fill="#000000" transform="matrix(1.00, 0.00, -0.00, -1.00, 1347.3, 762.0)">e</text><text xml:space="preserve" font-family="Helvetica-Light" font-size="92.0" fill="#000000" transform="matrix(1.00, 0.00, -0.00, -1.00, 1398.5, 762.0)">r</text><text xml:space="preserve" font-family="Helvetica-Light" font-size="92.0" fill="#000000" transform="matrix(1.00, 0.00, -0.00, -1.00, 1429.1, 762.0)">a</text><text xml:space="preserve" font-family="Helvetica-Light" font-size="92.0" fill="#000000" transform="matrix(1.00, 0.00, -0.00, -1.00, 1480.2, 762.0)">c</text><text xml:space="preserve" font-family="Helvetica-Light" font-size="92.0" fill="#000000" transform="matrix(1.00, 0.00, -0.00, -1.00, 1531.4, 762.0)">t</text><text xml:space="preserve" font-family="Helvetica-Light" font-size="92.0" fill="#000000" transform="matrix(1.00, 0.00, -0.00, -1.00, 1557.0, 762.0)">i</text><text xml:space="preserve" font-family="Helvetica-Light" font-size="92.0" fill="#000000" transform="matrix(1.00, 0.00, -0.00, -1.00, 1577.4, 762.0)">o</text><text xml:space="preserve" font-family="Helvetica-Light" font-size="92.0" fill="#000000" transform="matrix(1.00, 0.00, -0.00, -1.00, 1628.5, 762.0)">n</text><text xml:space="preserve" font-family="Helvetica-Light" font-size="92.0" fill="#000000" transform="matrix(1.00, 0.00, -0.00, -1.00, 1679.7, 762.0)">s</text><path d="M 0.0 0.0 L 226.5 0.0 " fill="none" stroke="#F5D327" stroke-width="3.00" transform="matrix(1.00, 0.00, 0.00, -1.00, 1124.1, 559.0)"></path><text xml:space="preserve" font-family="Helvetica-Light" font-size="40.0" fill="#000000" transform="matrix(1.00, 0.00, -0.00, -1.00, 1380.0, 552.0)">M</text><text xml:space="preserve" font-family="Helvetica-Light" font-size="40.0" fill="#000000" transform="matrix(1.00, 0.00, -0.00, -1.00, 1413.3, 552.0)">a</text><text xml:space="preserve" font-family="Helvetica-Light" font-size="40.0" fill="#000000" transform="matrix(1.00, 0.00, -0.00, -1.00, 1435.6, 552.0)">p</text><text xml:space="preserve" font-family="Helvetica-Light" font-size="40.0" fill="#000000" transform="matrix(1.00, 0.00, -0.00, -1.00, 1460.0, 552.0)"> </text><text xml:space="preserve" font-family="Helvetica-Light" font-size="40.0" fill="#000000" transform="matrix(1.00, 0.00, -0.00, -1.00, 1471.1, 552.0)">w</text><text xml:space="preserve" font-family="Helvetica-Light" font-size="40.0" fill="#000000" transform="matrix(1.00, 0.00, -0.00, -1.00, 1500.0, 552.0)">i</text><text xml:space="preserve" font-family="Helvetica-Light" font-size="40.0" fill="#000000" transform="matrix(1.00, 0.00, -0.00, -1.00, 1508.9, 552.0)">l</text><text xml:space="preserve" font-family="Helvetica-Light" font-size="40.0" fill="#000000" transform="matrix(1.00, 0.00, -0.00, -1.00, 1517.8, 552.0)">l</text><text xml:space="preserve" font-family="Helvetica-Light" font-size="40.0" fill="#000000" transform="matrix(1.00, 0.00, -0.00, -1.00, 1526.6, 552.0)"> </text><text xml:space="preserve" font-family="Helvetica-Light" font-size="40.0" fill="#000000" transform="matrix(1.00, 0.00, -0.00, -1.00, 1537.8, 552.0)">a</text><text xml:space="preserve" font-family="Helvetica-Light" font-size="40.0" fill="#000000" transform="matrix(1.00, 0.00, -0.00, -1.00, 1560.0, 552.0)">p</text><text xml:space="preserve" font-family="Helvetica-Light" font-size="40.0" fill="#000000" transform="matrix(1.00, 0.00, -0.00, -1.00, 1584.4, 552.0)">p</text><text xml:space="preserve" font-family="Helvetica-Light" font-size="40.0" fill="#000000" transform="matrix(1.00, 0.00, -0.00, -1.00, 1608.9, 552.0)">e</text><text xml:space="preserve" font-family="Helvetica-Light" font-size="40.0" fill="#000000" transform="matrix(1.00, 0.00, -0.00, -1.00, 1631.1, 552.0)">a</text><text xml:space="preserve" font-family="Helvetica-Light" font-size="40.0" fill="#000000" transform="matrix(1.00, 0.00, -0.00, -1.00, 1653.4, 552.0)">r</text><text xml:space="preserve" font-family="Helvetica-Light" font-size="40.0" fill="#000000" transform="matrix(1.00, 0.00, -0.00, -1.00, 1666.7, 552.0)"> </text><text xml:space="preserve" font-family="Helvetica-Light" font-size="40.0" fill="#000000" transform="matrix(1.00, 0.00, -0.00, -1.00, 1677.8, 552.0)">i</text><text xml:space="preserve" font-family="Helvetica-Light" font-size="40.0" fill="#000000" transform="matrix(1.00, 0.00, -0.00, -1.00, 1686.7, 552.0)">f</text><text xml:space="preserve" font-family="Helvetica-Light" font-size="40.0" fill="#000000" transform="matrix(1.00, 0.00, -0.00, -1.00, 1697.8, 552.0)"> </text><text xml:space="preserve" font-family="Helvetica-Light" font-size="40.0" fill="#000000" transform="matrix(1.00, 0.00, -0.00, -1.00, 1380.0, 504.0)">y</text><text xml:space="preserve" font-family="Helvetica-Light" font-size="40.0" fill="#000000" transform="matrix(1.00, 0.00, -0.00, -1.00, 1400.0, 504.0)">o</text><text xml:space="preserve" font-family="Helvetica-Light" font-size="40.0" fill="#000000" transform="matrix(1.00, 0.00, -0.00, -1.00, 1422.2, 504.0)">u</text><text xml:space="preserve" font-family="Helvetica-Light" font-size="40.0" fill="#000000" transform="matrix(1.00, 0.00, -0.00, -1.00, 1444.5, 504.0)"> </text><text xml:space="preserve" font-family="Helvetica-Light" font-size="40.0" fill="#000000" transform="matrix(1.00, 0.00, -0.00, -1.00, 1455.6, 504.0)">s</text><text xml:space="preserve" font-family="Helvetica-Light" font-size="40.0" fill="#000000" transform="matrix(1.00, 0.00, -0.00, -1.00, 1475.6, 504.0)">e</text><text xml:space="preserve" font-family="Helvetica-Light" font-size="40.0" fill="#000000" transform="matrix(1.00, 0.00, -0.00, -1.00, 1497.8, 504.0)">l</text><text xml:space="preserve" font-family="Helvetica-Light" font-size="40.0" fill="#000000" transform="matrix(1.00, 0.00, -0.00, -1.00, 1506.7, 504.0)">e</text><text xml:space="preserve" font-family="Helvetica-Light" font-size="40.0" fill="#000000" transform="matrix(1.00, 0.00, -0.00, -1.00, 1529.0, 504.0)">c</text><text xml:space="preserve" font-family="Helvetica-Light" font-size="40.0" fill="#000000" transform="matrix(1.00, 0.00, -0.00, -1.00, 1551.2, 504.0)">t</text><text xml:space="preserve" font-family="Helvetica-Light" font-size="40.0" fill="#000000" transform="matrix(1.00, 0.00, -0.00, -1.00, 1562.3, 504.0)"> </text><text xml:space="preserve" font-family="Helvetica-Light" font-size="40.0" fill="#000000" transform="matrix(1.00, 0.00, -0.00, -1.00, 1573.4, 504.0)">a</text><text xml:space="preserve" font-family="Helvetica-Light" font-size="40.0" fill="#000000" transform="matrix(1.00, 0.00, -0.00, -1.00, 1595.7, 504.0)"> </text><text xml:space="preserve" font-family="Helvetica-Light" font-size="40.0" fill="#000000" transform="matrix(1.00, 0.00, -0.00, -1.00, 1606.8, 504.0)">r</text><text xml:space="preserve" font-family="Helvetica-Light" font-size="40.0" fill="#000000" transform="matrix(1.00, 0.00, -0.00, -1.00, 1619.4, 504.0)">e</text><text xml:space="preserve" font-family="Helvetica-Light" font-size="40.0" fill="#000000" transform="matrix(1.00, 0.00, -0.00, -1.00, 1641.6, 504.0)">l</text><text xml:space="preserve" font-family="Helvetica-Light" font-size="40.0" fill="#000000" transform="matrix(1.00, 0.00, -0.00, -1.00, 1650.5, 504.0)">a</text><text xml:space="preserve" font-family="Helvetica-Light" font-size="40.0" fill="#000000" transform="matrix(1.00, 0.00, -0.00, -1.00, 1672.8, 504.0)">t</text><text xml:space="preserve" font-family="Helvetica-Light" font-size="40.0" fill="#000000" transform="matrix(1.00, 0.00, -0.00, -1.00, 1683.9, 504.0)">e</text><text xml:space="preserve" font-family="Helvetica-Light" font-size="40.0" fill="#000000" transform="matrix(1.00, 0.00, -0.00, -1.00, 1706.1, 504.0)">d</text><text xml:space="preserve" font-family="Helvetica-Light" font-size="40.0" fill="#000000" transform="matrix(1.00, 0.00, -0.00, -1.00, 1730.6, 504.0)"> </text><text xml:space="preserve" font-family="Helvetica-Light" font-size="40.0" fill="#000000" transform="matrix(1.00, 0.00, -0.00, -1.00, 1380.0, 456.0)">p</text><text xml:space="preserve" font-family="Helvetica-Light" font-size="40.0" fill="#000000" transform="matrix(1.00, 0.00, -0.00, -1.00, 1404.4, 456.0)">i</text><text xml:space="preserve" font-family="Helvetica-Light" font-size="40.0" fill="#000000" transform="matrix(1.00, 0.00, -0.00, -1.00, 1413.3, 456.0)">e</text><text xml:space="preserve" font-family="Helvetica-Light" font-size="40.0" fill="#000000" transform="matrix(1.00, 0.00, -0.00, -1.00, 1435.6, 456.0)">c</text><text xml:space="preserve" font-family="Helvetica-Light" font-size="40.0" fill="#000000" transform="matrix(1.00, 0.00, -0.00, -1.00, 1457.8, 456.0)">e</text><text xml:space="preserve" font-family="Helvetica-Light" font-size="40.0" fill="#000000" transform="matrix(1.00, 0.00, -0.00, -1.00, 1480.0, 456.0)">.</text><text xml:space="preserve" font-family="Helvetica-Light" font-size="40.0" fill="#000000" transform="matrix(1.00, 0.00, -0.00, -1.00, 1491.2, 456.0)"> </text><text xml:space="preserve" font-family="Helvetica-Light" font-size="40.0" fill="#000000" transform="matrix(1.00, 0.00, -0.00, -1.00, 1502.3, 456.0)"> </text><text xml:space="preserve" font-family="Helvetica-Light" font-size="40.0" fill="#000000" transform="matrix(1.00, 0.00, -0.00, -1.00, 1380.0, 360.0)">S</text><text xml:space="preserve" font-family="Helvetica-Light" font-size="40.0" fill="#000000" transform="matrix(1.00, 0.00, -0.00, -1.00, 1404.4, 360.0)">c</text><text xml:space="preserve" font-family="Helvetica-Light" font-size="40.0" fill="#000000" transform="matrix(1.00, 0.00, -0.00, -1.00, 1426.7, 360.0)">a</text><text xml:space="preserve" font-family="Helvetica-Light" font-size="40.0" fill="#000000" transform="matrix(1.00, 0.00, -0.00, -1.00, 1448.9, 360.0)">n</text><text xml:space="preserve" font-family="Helvetica-Light" font-size="40.0" fill="#000000" transform="matrix(1.00, 0.00, -0.00, -1.00, 1471.2, 360.0)"> </text><text xml:space="preserve" font-family="Helvetica-Light" font-size="40.0" fill="#000000" transform="matrix(1.00, 0.00, -0.00, -1.00, 1482.3, 360.0)">c</text><text xml:space="preserve" font-family="Helvetica-Light" font-size="40.0" fill="#000000" transform="matrix(1.00, 0.00, -0.00, -1.00, 1504.5, 360.0)">o</text><text xml:space="preserve" font-family="Helvetica-Light" font-size="40.0" fill="#000000" transform="matrix(1.00, 0.00, -0.00, -1.00, 1526.8, 360.0)">d</text><text xml:space="preserve" font-family="Helvetica-Light" font-size="40.0" fill="#000000" transform="matrix(1.00, 0.00, -0.00, -1.00, 1551.2, 360.0)">e</text><text xml:space="preserve" font-family="Helvetica-Light" font-size="40.0" fill="#000000" transform="matrix(1.00, 0.00, -0.00, -1.00, 1573.4, 360.0)"> </text><text xml:space="preserve" font-family="Helvetica-Light" font-size="40.0" fill="#000000" transform="matrix(1.00, 0.00, -0.00, -1.00, 1584.6, 360.0)">t</text><text xml:space="preserve" font-family="Helvetica-Light" font-size="40.0" fill="#000000" transform="matrix(1.00, 0.00, -0.00, -1.00, 1595.7, 360.0)">o</text><text xml:space="preserve" font-family="Helvetica-Light" font-size="40.0" fill="#000000" transform="matrix(1.00, 0.00, -0.00, -1.00, 1617.9, 360.0)"> </text><text xml:space="preserve" font-family="Helvetica-Light" font-size="40.0" fill="#000000" transform="matrix(1.00, 0.00, -0.00, -1.00, 1380.0, 312.0)">r</text><text xml:space="preserve" font-family="Helvetica-Light" font-size="40.0" fill="#000000" transform="matrix(1.00, 0.00, -0.00, -1.00, 1392.6, 312.0)">e</text><text xml:space="preserve" font-family="Helvetica-Light" font-size="40.0" fill="#000000" transform="matrix(1.00, 0.00, -0.00, -1.00, 1414.8, 312.0)">c</text><text xml:space="preserve" font-family="Helvetica-Light" font-size="40.0" fill="#000000" transform="matrix(1.00, 0.00, -0.00, -1.00, 1437.1, 312.0)">e</text><text xml:space="preserve" font-family="Helvetica-Light" font-size="40.0" fill="#000000" transform="matrix(1.00, 0.00, -0.00, -1.00, 1459.3, 312.0)">i</text><text xml:space="preserve" font-family="Helvetica-Light" font-size="40.0" fill="#000000" transform="matrix(1.00, 0.00, -0.00, -1.00, 1468.2, 312.0)">v</text><text xml:space="preserve" font-family="Helvetica-Light" font-size="40.0" fill="#000000" transform="matrix(1.00, 0.00, -0.00, -1.00, 1488.2, 312.0)">e</text><text xml:space="preserve" font-family="Helvetica-Light" font-size="40.0" fill="#000000" transform="matrix(1.00, 0.00, -0.00, -1.00, 1510.4, 312.0)"> </text><text xml:space="preserve" font-family="Helvetica-Light" font-size="40.0" fill="#000000" transform="matrix(1.00, 0.00, -0.00, -1.00, 1521.6, 312.0)">m</text><text xml:space="preserve" font-family="Helvetica-Light" font-size="40.0" fill="#000000" transform="matrix(1.00, 0.00, -0.00, -1.00, 1554.9, 312.0)">a</text><text xml:space="preserve" font-family="Helvetica-Light" font-size="40.0" fill="#000000" transform="matrix(1.00, 0.00, -0.00, -1.00, 1577.1, 312.0)">p</text><text xml:space="preserve" font-family="Helvetica-Light" font-size="40.0" fill="#000000" transform="matrix(1.00, 0.00, -0.00, -1.00, 1601.6, 312.0)"> </text><text xml:space="preserve" font-family="Helvetica-Light" font-size="40.0" fill="#000000" transform="matrix(1.00, 0.00, -0.00, -1.00, 1612.7, 312.0)">d</text><text xml:space="preserve" font-family="Helvetica-Light" font-size="40.0" fill="#000000" transform="matrix(1.00, 0.00, -0.00, -1.00, 1637.1, 312.0)">e</text><text xml:space="preserve" font-family="Helvetica-Light" font-size="40.0" fill="#000000" transform="matrix(1.00, 0.00, -0.00, -1.00, 1659.4, 312.0)">t</text><text xml:space="preserve" font-family="Helvetica-Light" font-size="40.0" fill="#000000" transform="matrix(1.00, 0.00, -0.00, -1.00, 1670.5, 312.0)">a</text><text xml:space="preserve" font-family="Helvetica-Light" font-size="40.0" fill="#000000" transform="matrix(1.00, 0.00, -0.00, -1.00, 1692.7, 312.0)">i</text><text xml:space="preserve" font-family="Helvetica-Light" font-size="40.0" fill="#000000" transform="matrix(1.00, 0.00, -0.00, -1.00, 1701.6, 312.0)">l</text><text xml:space="preserve" font-family="Helvetica-Light" font-size="40.0" fill="#000000" transform="matrix(1.00, 0.00, -0.00, -1.00, 1710.5, 312.0)">s</text><text xml:space="preserve" font-family="Helvetica-Light" font-size="40.0" fill="#000000" transform="matrix(1.00, 0.00, -0.00, -1.00, 1730.5, 312.0)"> </text><text xml:space="preserve" font-family="Helvetica-Light" font-size="40.0" fill="#000000" transform="matrix(1.00, 0.00, -0.00, -1.00, 1380.0, 264.0)">o</text><text xml:space="preserve" font-family="Helvetica-Light" font-size="40.0" fill="#000000" transform="matrix(1.00, 0.00, -0.00, -1.00, 1402.2, 264.0)">n</text><text xml:space="preserve" font-family="Helvetica-Light" font-size="40.0" fill="#000000" transform="matrix(1.00, 0.00, -0.00, -1.00, 1424.5, 264.0)"> </text><text xml:space="preserve" font-family="Helvetica-Light" font-size="40.0" fill="#000000" transform="matrix(1.00, 0.00, -0.00, -1.00, 1435.6, 264.0)">y</text><text xml:space="preserve" font-family="Helvetica-Light" font-size="40.0" fill="#000000" transform="matrix(1.00, 0.00, -0.00, -1.00, 1455.6, 264.0)">o</text><text xml:space="preserve" font-family="Helvetica-Light" font-size="40.0" fill="#000000" transform="matrix(1.00, 0.00, -0.00, -1.00, 1477.8, 264.0)">u</text><text xml:space="preserve" font-family="Helvetica-Light" font-size="40.0" fill="#000000" transform="matrix(1.00, 0.00, -0.00, -1.00, 1500.1, 264.0)">r</text><text xml:space="preserve" font-family="Helvetica-Light" font-size="40.0" fill="#000000" transform="matrix(1.00, 0.00, -0.00, -1.00, 1513.4, 264.0)"> </text><text xml:space="preserve" font-family="Helvetica-Light" font-size="40.0" fill="#000000" transform="matrix(1.00, 0.00, -0.00, -1.00, 1524.5, 264.0)">p</text><text xml:space="preserve" font-family="Helvetica-Light" font-size="40.0" fill="#000000" transform="matrix(1.00, 0.00, -0.00, -1.00, 1549.0, 264.0)">h</text><text xml:space="preserve" font-family="Helvetica-Light" font-size="40.0" fill="#000000" transform="matrix(1.00, 0.00, -0.00, -1.00, 1571.2, 264.0)">o</text><text xml:space="preserve" font-family="Helvetica-Light" font-size="40.0" fill="#000000" transform="matrix(1.00, 0.00, -0.00, -1.00, 1593.4, 264.0)">n</text><text xml:space="preserve" font-family="Helvetica-Light" font-size="40.0" fill="#000000" transform="matrix(1.00, 0.00, -0.00, -1.00, 1615.7, 264.0)">e</text></g></svg>