<?xml version="1.0" encoding="UTF-8" standalone="no"?><svg xmlns="http://www.w3.org/2000/svg" xmlns:xlink="http://www.w3.org/1999/xlink" clip-rule="evenodd" stroke-miterlimit="4.00" viewBox="0 0 473 182"><desc>SVG generated by Keynote</desc><defs></defs><g transform="matrix(1.00, 0.00, -0.00, -1.00, 0.0, 182.0)"><text xml:space="preserve" font-family="Helvetica-Light" font-size="92.0" fill="#000000" transform="matrix(1.00, 0.00, -0.00, -1.00, -5.0, 113.0)">P</text><text xml:space="preserve" font-family="Helvetica-Light" font-size="92.0" fill="#000000" transform="matrix(1.00, 0.00, -0.00, -1.00, 51.2, 113.0)">r</text><text xml:space="preserve" font-family="Helvetica-Light" font-size="92.0" fill="#000000" transform="matrix(1.00, 0.00, -0.00, -1.00, 80.2, 113.0)">o</text><text xml:space="preserve" font-family="Helvetica-Light" font-size="92.0" fill="#000000" transform="matrix(1.00, 0.00, -0.00, -1.00, 131.3, 113.0)">j</text><text xml:space="preserve" font-family="Helvetica-Light" font-size="92.0" fill="#000000" transform="matrix(1.00, 0.00, -0.00, -1.00, 151.8, 113.0)">e</text><text xml:space="preserve" font-family="Helvetica-Light" font-size="92.0" fill="#000000" transform="matrix(1.00, 0.00, -0.00, -1.00, 202.9, 113.0)">c</text><text xml:space="preserve" font-family="Helvetica-Light" font-size="92.0" fill="#000000" transform="matrix(1.00, 0.00, -0.00, -1.00, 254.1, 113.0)">t</text><text xml:space="preserve" font-family="Helvetica-Light" font-size="92.0" fill="#000000" transform="matrix(1.00, 0.00, -0.00, -1.00, 279.6, 113.0)">i</text><text xml:space="preserve" font-family="Helvetica-Light" font-size="92.0" fill="#000000" transform="matrix(1.00, 0.00, -0.00, -1.00, 300.1, 113.0)">o</text><text xml:space="preserve" font-family="Helvetica-Light" font-size="92.0" fill="#000000" transform="matrix(1.00, 0.00, -0.00, -1.00, 351.2, 113.0)">n</text><text xml:space="preserve" font-family="Helvetica-Light" font-size="92.0" fill="#000000" transform="matrix(1.00, 0.00, -0.00, -1.00, 402.4, 113.0)"> </text><text xml:space="preserve" font-family="Helvetica-Light" font-size="92.0" fill="#000000" transform="matrix(1.00, 0.00, -0.00, -1.00, -5.0, 3.0)">I</text><text xml:space="preserve" font-family="Helvetica-Light" font-size="92.0" fill="#000000" transform="matrix(1.00, 0.00, -0.00, -1.00, 20.6, 3.0)">n</text><text xml:space="preserve" font-family="Helvetica-Light" font-size="92.0" fill="#000000" transform="matrix(1.00, 0.00, -0.00, -1.00, 71.7, 3.0)">t</text><text xml:space="preserve" font-family="Helvetica-Light" font-size="92.0" fill="#000000" transform="matrix(1.00, 0.00, -0.00, -1.00, 97.3, 3.0)">e</text><text xml:space="preserve" font-family="Helvetica-Light" font-size="92.0" fill="#000000" transform="matrix(1.00, 0.00, -0.00, -1.00, 148.5, 3.0)">r</text><text xml:space="preserve" font-family="Helvetica-Light" font-size="92.0" fill="#000000" transform="matrix(1.00, 0.00, -0.00, -1.00, 179.1, 3.0)">a</text><text xml:space="preserve" font-family="Helvetica-Light" font-size="92.0" fill="#000000" transform="matrix(1.00, 0.00, -0.00, -1.00, 230.2, 3.0)">c</text><text xml:space="preserve" font-family="Helvetica-Light" font-size="92.0" fill="#000000" transform="matrix(1.00, 0.00, -0.00, -1.00, 281.4, 3.0)">t</text><text xml:space="preserve" font-family="Helvetica-Light" font-size="92.0" fill="#000000" transform="matrix(1.00, 0.00, -0.00, -1.00, 307.0, 3.0)">i</text><text xml:space="preserve" font-family="Helvetica-Light" font-size="92.0" fill="#000000" transform="matrix(1.00, 0.00, -0.00, -1.00, 327.4, 3.0)">o</text><text xml:space="preserve" font-family="Helvetica-Light" font-size="92.0" fill="#000000" transform="matrix(1.00, 0.00, -0.00, -1.00, 378.5, 3.0)">n</text><text xml:space="preserve" font-family="Helvetica-Light" font-size="92.0" fill="#000000" transform="matrix(1.00, 0.00, -0.00, -1.00, 429.7, 3.0)">s</text></g></svg>