<?xml version="1.0" encoding="UTF-8" standalone="no"?><svg xmlns="http://www.w3.org/2000/svg" xmlns:xlink="http://www.w3.org/1999/xlink" clip-rule="evenodd" stroke-miterlimit="4.00" viewBox="0 0 388 40"><desc>SVG generated by Keynote</desc><defs></defs><g transform="matrix(1.00, 0.00, -0.00, -1.00, 0.0, 40.0)"><text xml:space="preserve" font-family="Helvetica-Light" font-size="38.0" fill="#000000" transform="matrix(1.00, 0.00, -0.00, -1.00, 0.0, 10.0)">S</text><text xml:space="preserve" font-family="Helvetica-Light" font-size="38.0" fill="#000000" transform="matrix(1.00, 0.00, -0.00, -1.00, 23.2, 10.0)">t</text><text xml:space="preserve" font-family="Helvetica-Light" font-size="38.0" fill="#000000" transform="matrix(1.00, 0.00, -0.00, -1.00, 33.8, 10.0)">e</text><text xml:space="preserve" font-family="Helvetica-Light" font-size="38.0" fill="#000000" transform="matrix(1.00, 0.00, -0.00, -1.00, 54.9, 10.0)">p</text><text xml:space="preserve" font-family="Helvetica-Light" font-size="38.0" fill="#000000" transform="matrix(1.00, 0.00, -0.00, -1.00, 78.1, 10.0)">p</text><text xml:space="preserve" font-family="Helvetica-Light" font-size="38.0" fill="#000000" transform="matrix(1.00, 0.00, -0.00, -1.00, 101.3, 10.0)">i</text><text xml:space="preserve" font-family="Helvetica-Light" font-size="38.0" fill="#000000" transform="matrix(1.00, 0.00, -0.00, -1.00, 109.8, 10.0)">n</text><text xml:space="preserve" font-family="Helvetica-Light" font-size="38.0" fill="#000000" transform="matrix(1.00, 0.00, -0.00, -1.00, 130.9, 10.0)">g</text><text xml:space="preserve" font-family="Helvetica-Light" font-size="38.0" fill="#000000" transform="matrix(1.00, 0.00, -0.00, -1.00, 154.1, 10.0)"> </text><text xml:space="preserve" font-family="Helvetica-Light" font-size="38.0" fill="#000000" transform="matrix(1.00, 0.00, -0.00, -1.00, 164.7, 10.0)">i</text><text xml:space="preserve" font-family="Helvetica-Light" font-size="38.0" fill="#000000" transform="matrix(1.00, 0.00, -0.00, -1.00, 173.1, 10.0)">n</text><text xml:space="preserve" font-family="Helvetica-Light" font-size="38.0" fill="#000000" transform="matrix(1.00, 0.00, -0.00, -1.00, 194.3, 10.0)">t</text><text xml:space="preserve" font-family="Helvetica-Light" font-size="38.0" fill="#000000" transform="matrix(1.00, 0.00, -0.00, -1.00, 204.8, 10.0)">o</text><text xml:space="preserve" font-family="Helvetica-Light" font-size="38.0" fill="#000000" transform="matrix(1.00, 0.00, -0.00, -1.00, 225.9, 10.0)"> </text><text xml:space="preserve" font-family="Helvetica-Light" font-size="38.0" fill="#000000" transform="matrix(1.00, 0.00, -0.00, -1.00, 236.5, 10.0)">t</text><text xml:space="preserve" font-family="Helvetica-Light" font-size="38.0" fill="#000000" transform="matrix(1.00, 0.00, -0.00, -1.00, 247.1, 10.0)">h</text><text xml:space="preserve" font-family="Helvetica-Light" font-size="38.0" fill="#000000" transform="matrix(1.00, 0.00, -0.00, -1.00, 268.2, 10.0)">e</text><text xml:space="preserve" font-family="Helvetica-Light" font-size="38.0" fill="#000000" transform="matrix(1.00, 0.00, -0.00, -1.00, 289.3, 10.0)"> </text><text xml:space="preserve" font-family="Helvetica-Light" font-size="38.0" fill="#000000" transform="matrix(1.00, 0.00, -0.00, -1.00, 299.9, 10.0)">o</text><text xml:space="preserve" font-family="Helvetica-Light" font-size="38.0" fill="#000000" transform="matrix(1.00, 0.00, -0.00, -1.00, 321.0, 10.0)">u</text><text xml:space="preserve" font-family="Helvetica-Light" font-size="38.0" fill="#000000" transform="matrix(1.00, 0.00, -0.00, -1.00, 342.2, 10.0)">t</text><text xml:space="preserve" font-family="Helvetica-Light" font-size="38.0" fill="#000000" transform="matrix(1.00, 0.00, -0.00, -1.00, 352.7, 10.0)">e</text><text xml:space="preserve" font-family="Helvetica-Light" font-size="38.0" fill="#000000" transform="matrix(1.00, 0.00, -0.00, -1.00, 373.8, 10.0)">r</text></g></svg>