<?xml version="1.0" encoding="UTF-8" standalone="no"?><svg xmlns="http://www.w3.org/2000/svg" xmlns:xlink="http://www.w3.org/1999/xlink" clip-rule="evenodd" stroke-miterlimit="4.00" viewBox="0 0 212 39"><desc>SVG generated by Keynote</desc><defs></defs><g transform="matrix(1.00, 0.00, -0.00, -1.00, 0.0, 39.0)"><text xml:space="preserve" font-family="Helvetica-Light" font-size="38.0" fill="#000000" transform="matrix(1.00, 0.00, -0.00, -1.00, -2.0, 9.0)">F</text><text xml:space="preserve" font-family="Helvetica-Light" font-size="38.0" fill="#000000" transform="matrix(1.00, 0.00, -0.00, -1.00, 19.1, 9.0)">r</text><text xml:space="preserve" font-family="Helvetica-Light" font-size="38.0" fill="#000000" transform="matrix(1.00, 0.00, -0.00, -1.00, 31.8, 9.0)">a</text><text xml:space="preserve" font-family="Helvetica-Light" font-size="38.0" fill="#000000" transform="matrix(1.00, 0.00, -0.00, -1.00, 52.9, 9.0)">n</text><text xml:space="preserve" font-family="Helvetica-Light" font-size="38.0" fill="#000000" transform="matrix(1.00, 0.00, -0.00, -1.00, 74.0, 9.0)">z</text><text xml:space="preserve" font-family="Helvetica-Light" font-size="38.0" fill="#000000" transform="matrix(1.00, 0.00, -0.00, -1.00, 93.0, 9.0)"> </text><text xml:space="preserve" font-family="Helvetica-Light" font-size="38.0" fill="#000000" transform="matrix(1.00, 0.00, -0.00, -1.00, 103.6, 9.0)">K</text><text xml:space="preserve" font-family="Helvetica-Light" font-size="38.0" fill="#000000" transform="matrix(1.00, 0.00, -0.00, -1.00, 128.9, 9.0)">l</text><text xml:space="preserve" font-family="Helvetica-Light" font-size="38.0" fill="#000000" transform="matrix(1.00, 0.00, -0.00, -1.00, 137.4, 9.0)">i</text><text xml:space="preserve" font-family="Helvetica-Light" font-size="38.0" fill="#000000" transform="matrix(1.00, 0.00, -0.00, -1.00, 145.8, 9.0)">n</text><text xml:space="preserve" font-family="Helvetica-Light" font-size="38.0" fill="#000000" transform="matrix(1.00, 0.00, -0.00, -1.00, 166.9, 9.0)">e</text><text xml:space="preserve" font-family="Helvetica-Light" font-size="38.0" fill="#000000" transform="matrix(1.00, 0.00, -0.00, -1.00, 188.1, 9.0)">.</text><text xml:space="preserve" font-family="Helvetica-Light" font-size="38.0" fill="#000000" transform="matrix(1.00, 0.00, -0.00, -1.00, 198.6, 9.0)">)</text></g></svg>