<?xml version="1.0" encoding="UTF-8" standalone="no"?><svg xmlns="http://www.w3.org/2000/svg" xmlns:xlink="http://www.w3.org/1999/xlink" clip-rule="evenodd" stroke-miterlimit="4.00" viewBox="0 0 1920 1080"><desc>SVG generated by Keynote</desc><defs></defs><g transform="matrix(1.00, 0.00, -0.00, -1.00, 0.0, 1080.0)"><path d="M 0.0 1080.0 L 1920.0 1080.0 L 1920.0 0.0 L 0.0 0.0 Z M 0.0 1080.0 " fill="#FEFFFF"></path><g><clipPath id="clip-74"><path d="M 52.0 989.0 L 1397.0 989.0 L 1397.0 91.0 L 52.0 91.0 Z M 52.4 988.6 "></path></clipPath><g clip-path="url(#clip-74)"><image xlink:href="../../271FD111-1E1F-4FD1-877D-4B9655F98B33/assets/4609E8AFCE6B3519AC249180F2BD2D2B.png" width="810.00" height="539.00" transform="matrix(1.66, 0.00, -0.00, -1.67, 52.0, 989.0)"></image></g></g><text xml:space="preserve" font-family="Helvetica-Bold" font-weight="bold" font-size="46.0" fill="#000000" transform="matrix(1.00, 0.00, -0.00, -1.00, 1435.0, 420.0)">C</text><text xml:space="preserve" font-family="Helvetica-Bold" font-weight="bold" font-size="46.0" fill="#000000" transform="matrix(1.00, 0.00, -0.00, -1.00, 1468.2, 420.0)">l</text><text xml:space="preserve" font-family="Helvetica-Bold" font-weight="bold" font-size="46.0" fill="#000000" transform="matrix(1.00, 0.00, -0.00, -1.00, 1481.0, 420.0)">o</text><text xml:space="preserve" font-family="Helvetica-Bold" font-weight="bold" font-size="46.0" fill="#000000" transform="matrix(1.00, 0.00, -0.00, -1.00, 1509.1, 420.0)">s</text><text xml:space="preserve" font-family="Helvetica-Bold" font-weight="bold" font-size="46.0" fill="#000000" transform="matrix(1.00, 0.00, -0.00, -1.00, 1534.7, 420.0)">e</text><text xml:space="preserve" font-family="Helvetica-Bold" font-weight="bold" font-size="46.0" fill="#000000" transform="matrix(1.00, 0.00, -0.00, -1.00, 1560.3, 420.0)"> </text><text xml:space="preserve" font-family="Helvetica-Bold" font-weight="bold" font-size="46.0" fill="#000000" transform="matrix(1.00, 0.00, -0.00, -1.00, 1573.0, 420.0)">P</text><text xml:space="preserve" font-family="Helvetica-Bold" font-weight="bold" font-size="46.0" fill="#000000" transform="matrix(1.00, 0.00, -0.00, -1.00, 1603.7, 420.0)">r</text><text xml:space="preserve" font-family="Helvetica-Bold" font-weight="bold" font-size="46.0" fill="#000000" transform="matrix(1.00, 0.00, -0.00, -1.00, 1621.6, 420.0)">o</text><text xml:space="preserve" font-family="Helvetica-Bold" font-weight="bold" font-size="46.0" fill="#000000" transform="matrix(1.00, 0.00, -0.00, -1.00, 1649.7, 420.0)">x</text><text xml:space="preserve" font-family="Helvetica-Bold" font-weight="bold" font-size="46.0" fill="#000000" transform="matrix(1.00, 0.00, -0.00, -1.00, 1675.3, 420.0)">i</text><text xml:space="preserve" font-family="Helvetica-Bold" font-weight="bold" font-size="46.0" fill="#000000" transform="matrix(1.00, 0.00, -0.00, -1.00, 1688.1, 420.0)">m</text><text xml:space="preserve" font-family="Helvetica-Bold" font-weight="bold" font-size="46.0" fill="#000000" transform="matrix(1.00, 0.00, -0.00, -1.00, 1729.0, 420.0)">i</text><text xml:space="preserve" font-family="Helvetica-Bold" font-weight="bold" font-size="46.0" fill="#000000" transform="matrix(1.00, 0.00, -0.00, -1.00, 1741.8, 420.0)">t</text><text xml:space="preserve" font-family="Helvetica-Bold" font-weight="bold" font-size="46.0" fill="#000000" transform="matrix(1.00, 0.00, -0.00, -1.00, 1757.1, 420.0)">y</text><text xml:space="preserve" font-family="Helvetica-Light" font-size="38.0" fill="#000000" transform="matrix(1.00, 0.00, -0.00, -1.00, 1435.0, 373.0)">S</text><text xml:space="preserve" font-family="Helvetica-Light" font-size="38.0" fill="#000000" transform="matrix(1.00, 0.00, -0.00, -1.00, 1458.2, 373.0)">t</text><text xml:space="preserve" font-family="Helvetica-Light" font-size="38.0" fill="#000000" transform="matrix(1.00, 0.00, -0.00, -1.00, 1468.8, 373.0)">a</text><text xml:space="preserve" font-family="Helvetica-Light" font-size="38.0" fill="#000000" transform="matrix(1.00, 0.00, -0.00, -1.00, 1489.9, 373.0)">n</text><text xml:space="preserve" font-family="Helvetica-Light" font-size="38.0" fill="#000000" transform="matrix(1.00, 0.00, -0.00, -1.00, 1511.0, 373.0)">d</text><text xml:space="preserve" font-family="Helvetica-Light" font-size="38.0" fill="#000000" transform="matrix(1.00, 0.00, -0.00, -1.00, 1534.3, 373.0)">i</text><text xml:space="preserve" font-family="Helvetica-Light" font-size="38.0" fill="#000000" transform="matrix(1.00, 0.00, -0.00, -1.00, 1542.7, 373.0)">n</text><text xml:space="preserve" font-family="Helvetica-Light" font-size="38.0" fill="#000000" transform="matrix(1.00, 0.00, -0.00, -1.00, 1563.8, 373.0)">g</text><text xml:space="preserve" font-family="Helvetica-Light" font-size="38.0" fill="#000000" transform="matrix(1.00, 0.00, -0.00, -1.00, 1587.0, 373.0)"> </text><text xml:space="preserve" font-family="Helvetica-Light" font-size="38.0" fill="#000000" transform="matrix(1.00, 0.00, -0.00, -1.00, 1597.6, 373.0)">i</text><text xml:space="preserve" font-family="Helvetica-Light" font-size="38.0" fill="#000000" transform="matrix(1.00, 0.00, -0.00, -1.00, 1606.0, 373.0)">n</text><text xml:space="preserve" font-family="Helvetica-Light" font-size="38.0" fill="#000000" transform="matrix(1.00, 0.00, -0.00, -1.00, 1627.2, 373.0)"> </text><text xml:space="preserve" font-family="Helvetica-Light" font-size="38.0" fill="#000000" transform="matrix(1.00, 0.00, -0.00, -1.00, 1637.7, 373.0)">f</text><text xml:space="preserve" font-family="Helvetica-Light" font-size="38.0" fill="#000000" transform="matrix(1.00, 0.00, -0.00, -1.00, 1648.3, 373.0)">r</text><text xml:space="preserve" font-family="Helvetica-Light" font-size="38.0" fill="#000000" transform="matrix(1.00, 0.00, -0.00, -1.00, 1660.3, 373.0)">o</text><text xml:space="preserve" font-family="Helvetica-Light" font-size="38.0" fill="#000000" transform="matrix(1.00, 0.00, -0.00, -1.00, 1681.4, 373.0)">n</text><text xml:space="preserve" font-family="Helvetica-Light" font-size="38.0" fill="#000000" transform="matrix(1.00, 0.00, -0.00, -1.00, 1702.5, 373.0)">t</text><text xml:space="preserve" font-family="Helvetica-Light" font-size="38.0" fill="#000000" transform="matrix(1.00, 0.00, -0.00, -1.00, 1713.1, 373.0)"> </text><text xml:space="preserve" font-family="Helvetica-Light" font-size="38.0" fill="#000000" transform="matrix(1.00, 0.00, -0.00, -1.00, 1723.6, 373.0)">o</text><text xml:space="preserve" font-family="Helvetica-Light" font-size="38.0" fill="#000000" transform="matrix(1.00, 0.00, -0.00, -1.00, 1744.8, 373.0)">f</text><text xml:space="preserve" font-family="Helvetica-Light" font-size="38.0" fill="#000000" transform="matrix(1.00, 0.00, -0.00, -1.00, 1755.3, 373.0)"> </text><text xml:space="preserve" font-family="Helvetica-Light" font-size="38.0" fill="#000000" transform="matrix(1.00, 0.00, -0.00, -1.00, 1765.9, 373.0)">a</text><text xml:space="preserve" font-family="Helvetica-Light" font-size="38.0" fill="#000000" transform="matrix(1.00, 0.00, -0.00, -1.00, 1787.0, 373.0)"> </text><text xml:space="preserve" font-family="Helvetica-Light" font-size="38.0" fill="#000000" transform="matrix(1.00, 0.00, -0.00, -1.00, 1435.0, 327.0)">p</text><text xml:space="preserve" font-family="Helvetica-Light" font-size="38.0" fill="#000000" transform="matrix(1.00, 0.00, -0.00, -1.00, 1458.2, 327.0)">i</text><text xml:space="preserve" font-family="Helvetica-Light" font-size="38.0" fill="#000000" transform="matrix(1.00, 0.00, -0.00, -1.00, 1466.7, 327.0)">e</text><text xml:space="preserve" font-family="Helvetica-Light" font-size="38.0" fill="#000000" transform="matrix(1.00, 0.00, -0.00, -1.00, 1487.8, 327.0)">c</text><text xml:space="preserve" font-family="Helvetica-Light" font-size="38.0" fill="#000000" transform="matrix(1.00, 0.00, -0.00, -1.00, 1508.9, 327.0)">e</text><text xml:space="preserve" font-family="Helvetica-Light" font-size="38.0" fill="#000000" transform="matrix(1.00, 0.00, -0.00, -1.00, 1530.0, 327.0)"> </text><text xml:space="preserve" font-family="Helvetica-Light" font-size="38.0" fill="#000000" transform="matrix(1.00, 0.00, -0.00, -1.00, 1540.6, 327.0)">w</text><text xml:space="preserve" font-family="Helvetica-Light" font-size="38.0" fill="#000000" transform="matrix(1.00, 0.00, -0.00, -1.00, 1568.0, 327.0)">i</text><text xml:space="preserve" font-family="Helvetica-Light" font-size="38.0" fill="#000000" transform="matrix(1.00, 0.00, -0.00, -1.00, 1576.5, 327.0)">l</text><text xml:space="preserve" font-family="Helvetica-Light" font-size="38.0" fill="#000000" transform="matrix(1.00, 0.00, -0.00, -1.00, 1584.9, 327.0)">l</text><text xml:space="preserve" font-family="Helvetica-Light" font-size="38.0" fill="#000000" transform="matrix(1.00, 0.00, -0.00, -1.00, 1593.3, 327.0)"> </text><text xml:space="preserve" font-family="Helvetica-Light" font-size="38.0" fill="#000000" transform="matrix(1.00, 0.00, -0.00, -1.00, 1603.9, 327.0)">a</text><text xml:space="preserve" font-family="Helvetica-Light" font-size="38.0" fill="#000000" transform="matrix(1.00, 0.00, -0.00, -1.00, 1625.0, 327.0)">c</text><text xml:space="preserve" font-family="Helvetica-Light" font-size="38.0" fill="#000000" transform="matrix(1.00, 0.00, -0.00, -1.00, 1646.2, 327.0)">t</text><text xml:space="preserve" font-family="Helvetica-Light" font-size="38.0" fill="#000000" transform="matrix(1.00, 0.00, -0.00, -1.00, 1656.7, 327.0)">i</text><text xml:space="preserve" font-family="Helvetica-Light" font-size="38.0" fill="#000000" transform="matrix(1.00, 0.00, -0.00, -1.00, 1665.2, 327.0)">v</text><text xml:space="preserve" font-family="Helvetica-Light" font-size="38.0" fill="#000000" transform="matrix(1.00, 0.00, -0.00, -1.00, 1684.2, 327.0)">a</text><text xml:space="preserve" font-family="Helvetica-Light" font-size="38.0" fill="#000000" transform="matrix(1.00, 0.00, -0.00, -1.00, 1705.3, 327.0)">t</text><text xml:space="preserve" font-family="Helvetica-Light" font-size="38.0" fill="#000000" transform="matrix(1.00, 0.00, -0.00, -1.00, 1715.9, 327.0)">e</text><text xml:space="preserve" font-family="Helvetica-Light" font-size="38.0" fill="#000000" transform="matrix(1.00, 0.00, -0.00, -1.00, 1737.0, 327.0)"> </text><text xml:space="preserve" font-family="Helvetica-Light" font-size="38.0" fill="#000000" transform="matrix(1.00, 0.00, -0.00, -1.00, 1435.0, 281.0)">r</text><text xml:space="preserve" font-family="Helvetica-Light" font-size="38.0" fill="#000000" transform="matrix(1.00, 0.00, -0.00, -1.00, 1447.0, 281.0)">o</text><text xml:space="preserve" font-family="Helvetica-Light" font-size="38.0" fill="#000000" transform="matrix(1.00, 0.00, -0.00, -1.00, 1468.1, 281.0)">l</text><text xml:space="preserve" font-family="Helvetica-Light" font-size="38.0" fill="#000000" transform="matrix(1.00, 0.00, -0.00, -1.00, 1476.5, 281.0)">l</text><text xml:space="preserve" font-family="Helvetica-Light" font-size="38.0" fill="#000000" transform="matrix(1.00, 0.00, -0.00, -1.00, 1485.0, 281.0)">i</text><text xml:space="preserve" font-family="Helvetica-Light" font-size="38.0" fill="#000000" transform="matrix(1.00, 0.00, -0.00, -1.00, 1493.4, 281.0)">n</text><text xml:space="preserve" font-family="Helvetica-Light" font-size="38.0" fill="#000000" transform="matrix(1.00, 0.00, -0.00, -1.00, 1514.5, 281.0)">g</text><text xml:space="preserve" font-family="Helvetica-Light" font-size="38.0" fill="#000000" transform="matrix(1.00, 0.00, -0.00, -1.00, 1537.8, 281.0)"> </text><text xml:space="preserve" font-family="Helvetica-Light" font-size="38.0" fill="#000000" transform="matrix(1.00, 0.00, -0.00, -1.00, 1548.3, 281.0)">d</text><text xml:space="preserve" font-family="Helvetica-Light" font-size="38.0" fill="#000000" transform="matrix(1.00, 0.00, -0.00, -1.00, 1571.5, 281.0)">e</text><text xml:space="preserve" font-family="Helvetica-Light" font-size="38.0" fill="#000000" transform="matrix(1.00, 0.00, -0.00, -1.00, 1592.7, 281.0)">s</text><text xml:space="preserve" font-family="Helvetica-Light" font-size="38.0" fill="#000000" transform="matrix(1.00, 0.00, -0.00, -1.00, 1611.7, 281.0)">c</text><text xml:space="preserve" font-family="Helvetica-Light" font-size="38.0" fill="#000000" transform="matrix(1.00, 0.00, -0.00, -1.00, 1632.8, 281.0)">r</text><text xml:space="preserve" font-family="Helvetica-Light" font-size="38.0" fill="#000000" transform="matrix(1.00, 0.00, -0.00, -1.00, 1645.4, 281.0)">i</text><text xml:space="preserve" font-family="Helvetica-Light" font-size="38.0" fill="#000000" transform="matrix(1.00, 0.00, -0.00, -1.00, 1653.9, 281.0)">p</text><text xml:space="preserve" font-family="Helvetica-Light" font-size="38.0" fill="#000000" transform="matrix(1.00, 0.00, -0.00, -1.00, 1677.1, 281.0)">t</text><text xml:space="preserve" font-family="Helvetica-Light" font-size="38.0" fill="#000000" transform="matrix(1.00, 0.00, -0.00, -1.00, 1687.7, 281.0)">i</text><text xml:space="preserve" font-family="Helvetica-Light" font-size="38.0" fill="#000000" transform="matrix(1.00, 0.00, -0.00, -1.00, 1696.1, 281.0)">o</text><text xml:space="preserve" font-family="Helvetica-Light" font-size="38.0" fill="#000000" transform="matrix(1.00, 0.00, -0.00, -1.00, 1717.2, 281.0)">n</text><text xml:space="preserve" font-family="Helvetica-Light" font-size="38.0" fill="#000000" transform="matrix(1.00, 0.00, -0.00, -1.00, 1738.4, 281.0)"> </text><text xml:space="preserve" font-family="Helvetica-Light" font-size="38.0" fill="#000000" transform="matrix(1.00, 0.00, -0.00, -1.00, 1748.9, 281.0)">w</text><text xml:space="preserve" font-family="Helvetica-Light" font-size="38.0" fill="#000000" transform="matrix(1.00, 0.00, -0.00, -1.00, 1776.4, 281.0)">i</text><text xml:space="preserve" font-family="Helvetica-Light" font-size="38.0" fill="#000000" transform="matrix(1.00, 0.00, -0.00, -1.00, 1784.8, 281.0)">t</text><text xml:space="preserve" font-family="Helvetica-Light" font-size="38.0" fill="#000000" transform="matrix(1.00, 0.00, -0.00, -1.00, 1795.4, 281.0)">h</text><text xml:space="preserve" font-family="Helvetica-Light" font-size="38.0" fill="#000000" transform="matrix(1.00, 0.00, -0.00, -1.00, 1816.5, 281.0)"> </text><text xml:space="preserve" font-family="Helvetica-Light" font-size="38.0" fill="#000000" transform="matrix(1.00, 0.00, -0.00, -1.00, 1435.0, 235.0)">h</text><text xml:space="preserve" font-family="Helvetica-Light" font-size="38.0" fill="#000000" transform="matrix(1.00, 0.00, -0.00, -1.00, 1456.1, 235.0)">i</text><text xml:space="preserve" font-family="Helvetica-Light" font-size="38.0" fill="#000000" transform="matrix(1.00, 0.00, -0.00, -1.00, 1464.6, 235.0)">g</text><text xml:space="preserve" font-family="Helvetica-Light" font-size="38.0" fill="#000000" transform="matrix(1.00, 0.00, -0.00, -1.00, 1487.8, 235.0)">h</text><text xml:space="preserve" font-family="Helvetica-Light" font-size="38.0" fill="#000000" transform="matrix(1.00, 0.00, -0.00, -1.00, 1508.9, 235.0)">l</text><text xml:space="preserve" font-family="Helvetica-Light" font-size="38.0" fill="#000000" transform="matrix(1.00, 0.00, -0.00, -1.00, 1517.3, 235.0)">i</text><text xml:space="preserve" font-family="Helvetica-Light" font-size="38.0" fill="#000000" transform="matrix(1.00, 0.00, -0.00, -1.00, 1525.8, 235.0)">g</text><text xml:space="preserve" font-family="Helvetica-Light" font-size="38.0" fill="#000000" transform="matrix(1.00, 0.00, -0.00, -1.00, 1549.0, 235.0)">h</text><text xml:space="preserve" font-family="Helvetica-Light" font-size="38.0" fill="#000000" transform="matrix(1.00, 0.00, -0.00, -1.00, 1570.1, 235.0)">t</text><text xml:space="preserve" font-family="Helvetica-Light" font-size="38.0" fill="#000000" transform="matrix(1.00, 0.00, -0.00, -1.00, 1580.7, 235.0)">e</text><text xml:space="preserve" font-family="Helvetica-Light" font-size="38.0" fill="#000000" transform="matrix(1.00, 0.00, -0.00, -1.00, 1601.8, 235.0)">d</text><text xml:space="preserve" font-family="Helvetica-Light" font-size="38.0" fill="#000000" transform="matrix(1.00, 0.00, -0.00, -1.00, 1625.0, 235.0)"> </text><text xml:space="preserve" font-family="Helvetica-Light" font-size="38.0" fill="#000000" transform="matrix(1.00, 0.00, -0.00, -1.00, 1635.6, 235.0)">k</text><text xml:space="preserve" font-family="Helvetica-Light" font-size="38.0" fill="#000000" transform="matrix(1.00, 0.00, -0.00, -1.00, 1654.6, 235.0)">e</text><text xml:space="preserve" font-family="Helvetica-Light" font-size="38.0" fill="#000000" transform="matrix(1.00, 0.00, -0.00, -1.00, 1675.7, 235.0)">y</text><text xml:space="preserve" font-family="Helvetica-Light" font-size="38.0" fill="#000000" transform="matrix(1.00, 0.00, -0.00, -1.00, 1694.7, 235.0)">w</text><text xml:space="preserve" font-family="Helvetica-Light" font-size="38.0" fill="#000000" transform="matrix(1.00, 0.00, -0.00, -1.00, 1722.2, 235.0)">o</text><text xml:space="preserve" font-family="Helvetica-Light" font-size="38.0" fill="#000000" transform="matrix(1.00, 0.00, -0.00, -1.00, 1743.3, 235.0)">r</text><text xml:space="preserve" font-family="Helvetica-Light" font-size="38.0" fill="#000000" transform="matrix(1.00, 0.00, -0.00, -1.00, 1755.3, 235.0)">d</text><text xml:space="preserve" font-family="Helvetica-Light" font-size="38.0" fill="#000000" transform="matrix(1.00, 0.00, -0.00, -1.00, 1778.5, 235.0)">s</text><text xml:space="preserve" font-family="Helvetica-Light" font-size="38.0" fill="#000000" transform="matrix(1.00, 0.00, -0.00, -1.00, 1797.5, 235.0)">.</text><text xml:space="preserve" font-family="Helvetica-Light" font-size="38.0" fill="#000000" transform="matrix(1.00, 0.00, -0.00, -1.00, 1808.0, 235.0)"> </text><g><clipPath id="clip-75"><path d="M 1481.0 784.0 L 1795.0 784.0 L 1795.0 470.0 L 1481.0 470.0 Z M 1481.1 784.0 "></path></clipPath><g clip-path="url(#clip-75)"><image xlink:href="FDC0A6AE1F80CDAEF5DE602E05AF33E6.png" width="314.00" height="314.00" transform="matrix(1.00, 0.00, -0.00, -1.00, 1481.0, 784.0)"></image></g></g><text xml:space="preserve" font-family="Helvetica-Light" font-size="92.0" fill="#000000" transform="matrix(1.00, 0.00, -0.00, -1.00, 1435.0, 918.0)">S</text><text xml:space="preserve" font-family="Helvetica-Light" font-size="92.0" fill="#000000" transform="matrix(1.00, 0.00, -0.00, -1.00, 1491.2, 918.0)">p</text><text xml:space="preserve" font-family="Helvetica-Light" font-size="92.0" fill="#000000" transform="matrix(1.00, 0.00, -0.00, -1.00, 1547.4, 918.0)">a</text><text xml:space="preserve" font-family="Helvetica-Light" font-size="92.0" fill="#000000" transform="matrix(1.00, 0.00, -0.00, -1.00, 1598.6, 918.0)">t</text><text xml:space="preserve" font-family="Helvetica-Light" font-size="92.0" fill="#000000" transform="matrix(1.00, 0.00, -0.00, -1.00, 1624.2, 918.0)">i</text><text xml:space="preserve" font-family="Helvetica-Light" font-size="92.0" fill="#000000" transform="matrix(1.00, 0.00, -0.00, -1.00, 1644.6, 918.0)">a</text><text xml:space="preserve" font-family="Helvetica-Light" font-size="92.0" fill="#000000" transform="matrix(1.00, 0.00, -0.00, -1.00, 1695.7, 918.0)">l</text><text xml:space="preserve" font-family="Helvetica-Light" font-size="92.0" fill="#000000" transform="matrix(1.00, 0.00, -0.00, -1.00, 1716.2, 918.0)"> </text><text xml:space="preserve" font-family="Helvetica-Light" font-size="92.0" fill="#000000" transform="matrix(1.00, 0.00, -0.00, -1.00, 1741.7, 918.0)"> </text><text xml:space="preserve" font-family="Helvetica-Light" font-size="92.0" fill="#000000" transform="matrix(1.00, 0.00, -0.00, -1.00, 1435.0, 808.0)">I</text><text xml:space="preserve" font-family="Helvetica-Light" font-size="92.0" fill="#000000" transform="matrix(1.00, 0.00, -0.00, -1.00, 1460.6, 808.0)">n</text><text xml:space="preserve" font-family="Helvetica-Light" font-size="92.0" fill="#000000" transform="matrix(1.00, 0.00, -0.00, -1.00, 1511.7, 808.0)">t</text><text xml:space="preserve" font-family="Helvetica-Light" font-size="92.0" fill="#000000" transform="matrix(1.00, 0.00, -0.00, -1.00, 1537.3, 808.0)">e</text><text xml:space="preserve" font-family="Helvetica-Light" font-size="92.0" fill="#000000" transform="matrix(1.00, 0.00, -0.00, -1.00, 1588.5, 808.0)">r</text><text xml:space="preserve" font-family="Helvetica-Light" font-size="92.0" fill="#000000" transform="matrix(1.00, 0.00, -0.00, -1.00, 1619.1, 808.0)">a</text><text xml:space="preserve" font-family="Helvetica-Light" font-size="92.0" fill="#000000" transform="matrix(1.00, 0.00, -0.00, -1.00, 1670.2, 808.0)">c</text><text xml:space="preserve" font-family="Helvetica-Light" font-size="92.0" fill="#000000" transform="matrix(1.00, 0.00, -0.00, -1.00, 1721.4, 808.0)">t</text><text xml:space="preserve" font-family="Helvetica-Light" font-size="92.0" fill="#000000" transform="matrix(1.00, 0.00, -0.00, -1.00, 1747.0, 808.0)">i</text><text xml:space="preserve" font-family="Helvetica-Light" font-size="92.0" fill="#000000" transform="matrix(1.00, 0.00, -0.00, -1.00, 1767.4, 808.0)">o</text><text xml:space="preserve" font-family="Helvetica-Light" font-size="92.0" fill="#000000" transform="matrix(1.00, 0.00, -0.00, -1.00, 1818.5, 808.0)">n</text><g><clipPath id="clip-76"><path d="M 52.0 989.0 L 1397.0 989.0 L 1397.0 91.0 L 52.0 91.0 Z M 52.4 988.6 "></path></clipPath><g clip-path="url(#clip-76)"><image xlink:href="../../AC9CE311-AC70-4EDC-857B-F965FEEAD701/assets/B320ECE7B2E28877D2615188F7B27764.png" width="810.00" height="539.00" transform="matrix(1.66, 0.00, -0.00, -1.67, 52.0, 989.0)"></image></g></g><g><clipPath id="clip-77"><path d="M 52.0 989.0 L 1397.0 989.0 L 1397.0 91.0 L 52.0 91.0 Z M 52.4 988.6 "></path></clipPath><g clip-path="url(#clip-77)"><image xlink:href="49E07770E1CBD6D903394686EE036AE7.png" width="1044.00" height="767.00" transform="matrix(1.29, 0.00, -0.00, -1.29, 52.0, 1035.0)"></image></g></g></g></svg>